HIERARCHY
ROOT Hips
{
  OFFSET -102.467 93.6631 130.069
  CHANNELS 6 Xposition Yposition Zposition Zrotation Xrotation Yrotation
  JOINT LeftUpLeg
  {
    OFFSET 8.64259 1.95398 -2.38835
    CHANNELS 3 Zrotation Xrotation Yrotation
    JOINT LeftLeg
    {
      OFFSET 43.7702 0 0
      CHANNELS 3 Zrotation Xrotation Yrotation
      JOINT LeftFoot
      {
        OFFSET 40.6238 0 0
        CHANNELS 3 Zrotation Xrotation Yrotation
        JOINT LeftToeBase
        {
          OFFSET 12.7242 0 0
          CHANNELS 3 Zrotation Xrotation Yrotation
          End Site
          {
            OFFSET 0 0 0
          }
        }
      }
    }
  }
  JOINT RightUpLeg
  {
    OFFSET -8.2249 1.95398 -2.59336
    CHANNELS 3 Zrotation Xrotation Yrotation
    JOINT RightLeg
    {
      OFFSET 43.5653 0 0
      CHANNELS 3 Zrotation Xrotation Yrotation
      JOINT RightFoot
      {
        OFFSET 40.6238 0 0
        CHANNELS 3 Zrotation Xrotation Yrotation
        JOINT RightToeBase
        {
          OFFSET 12.7242 0 0
          CHANNELS 3 Zrotation Xrotation Yrotation
          End Site
          {
            OFFSET 0 0 0
          }
        }
      }
    }
  }
  JOINT Spine
  {
    OFFSET 0.165834 0.87714 6.61349
    CHANNELS 3 Zrotation Xrotation Yrotation
    JOINT Spine1
    {
      OFFSET 7.38963 1.71661e-005 0
      CHANNELS 3 Zrotation Xrotation Yrotation
      JOINT Spine2
      {
        OFFSET 11.9445 1.14441e-005 0
        CHANNELS 3 Zrotation Xrotation Yrotation
        JOINT Spine3
        {
          OFFSET 14.7254 4.19617e-005 0
          CHANNELS 3 Zrotation Xrotation Yrotation
          JOINT Spine4
          {
            OFFSET 10.9679 0 0
            CHANNELS 3 Zrotation Xrotation Yrotation
            JOINT RightShoulder
            {
              OFFSET 2.46616 -1.6653 3.69651
              CHANNELS 3 Zrotation Xrotation Yrotation
              JOINT RightArm
              {
                OFFSET 13.0012 0 0
                CHANNELS 3 Zrotation Xrotation Yrotation
                JOINT RightForeArm
                {
                  OFFSET 28.7848 1.52588e-005 0
                  CHANNELS 3 Zrotation Xrotation Yrotation
                  JOINT RightHand
                  {
                    OFFSET 26.5688 1.52588e-005 0
                    CHANNELS 3 Zrotation Xrotation Yrotation
                    End Site
                    {
                      OFFSET 0 0 0
                    }
                  }
                }
              }
            }
            JOINT LeftShoulder
            {
              OFFSET 2.38034 -1.29275 -3.7523
              CHANNELS 3 Zrotation Xrotation Yrotation
              JOINT LeftArm
              {
                OFFSET 16.3182 6.10351e-005 0
                CHANNELS 3 Zrotation Xrotation Yrotation
                JOINT LeftForeArm
                {
                  OFFSET 27.0901 0 0
                  CHANNELS 3 Zrotation Xrotation Yrotation
                  JOINT LeftHand
                  {
                    OFFSET 24.5451 1.52588e-005 0
                    CHANNELS 3 Zrotation Xrotation Yrotation
                    End Site
                    {
                      OFFSET 0 0 0
                    }
                  }
                }
              }
            }
            JOINT Neck
            {
              OFFSET 5.0226 -0.0266342 0
              CHANNELS 3 Zrotation Xrotation Yrotation
              JOINT Head
              {
                OFFSET 6.69363 2.86102e-005 0
                CHANNELS 3 Zrotation Xrotation Yrotation
                End Site
                {
                  OFFSET 0 0 0
                }
              }
            }
          }
        }
      }
    }
  }
}
MOTION
Frames:	11
Frame Time:	0.0416667
-309.425 59.5379 338.26 -105.4 -56.9585 -113.832 151.228 58.4187 103.113 -116.413 26.4221 -8.40098 85.5105 30.6233 12.5605 -12.3196 24.1402 -55.4814 -171.609 51.8479 58.3997 -114.143 -2.84646 2.12198 96.0159 6.04884 17.1562 35.7629 -1.35567 1.37685 -2.64674 7.88126 -88.5796 11.1763 -4.60797 3.27782 -0.491092 -4.45933 3.47752 -23.08 -5.37951 1.73901 -3.06733 -5.37952 1.739 66.3647 -31.8695 -148.028 36.5483 37.4538 61.367 162.104 -7.73425 -50.4759 5.97386 -4.45956 -72.8769 -114.422 -49.3095 43.1246 -15.6612 -33.0536 64.1425 46.8961 11.3593 -68.8501 24.3013 -4.52981 -22.9418 -69.392 38.3658 15.3557 123.487 55.9174 -0.973513 
-310.289 59.1242 339.275 -105.649 -56.9014 -114.402 149.718 59.6717 104.749 -114.103 27.6161 -8.70051 83.0072 29.1213 12.2536 -13.7185 26.3934 -59.1237 -172.067 50.7784 58.4368 -115.059 -4.04434 2.12512 97.5903 4.59059 15.6069 37.3307 -1.79407 1.05276 -2.63156 7.86186 -88.553 11.2152 -4.56469 3.32919 -0.452559 -4.4138 3.5269 -23.0395 -5.35366 1.80114 -3.0268 -5.35364 1.80114 65.8411 -32.591 -148.26 35.1278 37.4269 62.4587 161.538 -8.35119 -50.1021 5.47424 -4.07531 -72.2163 -114.744 -49.5271 42.8086 -14.8332 -32.3091 62.144 48.0427 11.7019 -69.7163 24.9469 -4.79217 -23.544 -69.803 37.787 15.2957 123.377 55.745 -0.579008 
-312.556 57.9412 341.951 -106.309 -56.7274 -115.943 146.266 62.2855 108.183 -107.515 29.9989 -9.38324 76.6495 24.6917 11.2906 5.25264 39.2519 -97.4561 -173.357 47.716 58.5288 -117.284 -8.02884 2.17821 101.408 -0.305893 10.8667 42.121 -3.41465 -0.631388 -2.59167 7.81409 -88.4846 11.3105 -4.4516 3.46052 -0.357931 -4.29511 3.6531 -22.9396 -5.28531 1.96075 -2.92697 -5.2853 1.96075 64.4888 -34.4399 -148.853 31.4166 37.2734 65.2755 160.12 -9.97166 -49.1845 4.25636 -3.1671 -70.58 -115.583 -50.105 41.9992 -13.0348 -30.4216 56.6252 50.084 12.5545 -70.9998 26.0942 -5.47455 -25.369 -70.8359 36.198 15.2078 123.104 55.1381 0.41516 
-315.718 56.0673 345.758 -107.234 -56.4328 -118.166 143.331 64.2803 110.651 -97.2985 32.1367 -9.66629 68.4667 17.7723 9.38339 -163.743 20.2311 1.37248 -175.279 42.6653 58.4755 -119.867 -15.2464 2.34784 105.406 -9.03174 3.32155 49.1421 -6.73058 -4.67919 -2.53655 7.75451 -88.3979 11.429 -4.29931 3.62567 -0.240457 -4.13568 3.8113 -22.8152 -5.18968 2.16449 -2.80252 -5.18967 2.16449 62.6765 -36.8828 -149.641 26.3261 36.8713 69.0627 158.348 -12.1886 -48.0373 2.78969 -2.13564 -68.5071 -116.747 -50.9386 40.9148 -11.2244 -27.99 48.6319 50.8374 13.9218 -70.8414 26.7255 -6.30543 -27.9978 -72.1885 33.8109 15.2675 122.736 53.98 1.73623 
-319.287 53.7876 350.175 -108.272 -56.0232 -120.775 143.226 64.3173 109.657 -84.3224 33.4937 -8.76797 59.8251 9.43929 6.24467 156.498 43.1067 31.38 -177.537 35.7618 57.8858 -121.824 -24.3576 2.57314 107.667 -19.5203 -5.15484 55.363 -11.0967 -10.1547 -2.48275 7.70128 -88.3211 11.5343 -4.15406 3.7706 -0.136004 -3.98421 3.94967 -22.7042 -5.09468 2.3468 -2.69152 -5.09468 2.34679 60.8329 -39.322 -150.437 20.7996 36.2076 73.0771 156.639 -14.6051 -46.9034 1.41202 -1.23168 -66.4018 -118.015 -51.9377 39.8078 -9.95107 -25.6332 39.8209 49.6414 15.8158 -68.8211 26.7236 -6.9136 -30.2464 -73.5677 30.8016 15.7307 122.341 52.2133 3.14261 
-322.769 51.6247 354.587 -109.291 -55.5163 -123.509 146.018 61.6942 105.304 -69.1181 34.3655 -6.48021 50.908 0.875245 1.71897 136.819 48.189 44.2597 -179.926 28.0309 56.6387 -122.525 -32.6226 2.6926 108.09 -28.536 -12.4009 59.3012 -14.9483 -14.855 -2.459 7.67592 -88.282 11.5846 -4.08736 3.84492 -0.0861877 -3.9143 4.02095 -22.6512 -5.05339 2.43792 -2.63857 -5.05339 2.43792 59.4601 -41.0908 -151.041 15.7453 35.4413 76.6683 155.185 -16.9421 -45.9599 0.266948 -0.532352 -64.5026 -119.104 -53.027 39.0061 -9.62941 -23.8609 31.652 47.2654 17.9144 -65.5707 26.5583 -7.07046 -30.9761 -74.6454 27.2877 16.9648 122.018 49.798 4.40454 
-325.61 50.1665 358.229 -110.188 -54.9406 -126.157 149.801 56.044 99.9337 -51.404 35.2683 -3.47366 41.1025 -6.95935 -4.30995 124.541 49.9112 53.1847 177.886 21.4455 54.8355 -122.053 -38.1801 2.55257 107.41 -34.1614 -17.322 61.8477 -17.5196 -17.5086 -2.51131 7.70514 -88.3002 11.5281 -4.20131 3.8169 -0.142227 -4.02939 3.998 -22.7111 -5.15364 2.37672 -2.69847 -5.15363 2.37672 59.1059 -41.4438 -151.268 12.0702 34.8835 79.2587 153.947 -19.075 -45.3798 -0.627344 -0.0228765 -62.941 -119.624 -54.1546 38.9657 -10.7145 -22.8683 24.8315 44.354 19.9015 -61.5036 26.698 -6.61037 -29.1684 -74.9745 23.354 19.475 121.888 46.6377 5.26843 
-327.174 49.9825 360.229 -110.894 -54.3287 -128.556 153.174 46.3095 95.3352 -28.1599 36.4046 -0.999485 28.5404 -13.6932 -12.4611 110.972 50.7727 63.6792 176.595 18.1887 52.6772 -121.184 -40.4516 2.05577 105.95 -35.6953 -19.74 64.0203 -18.7447 -17.7994 -2.70149 7.81919 -88.3725 11.3066 -4.61801 3.70036 -0.361961 -4.45078 3.90001 -22.9457 -5.51599 2.13938 -2.93306 -5.51599 2.13938 60.2126 -39.6102 -151.088 10.7944 34.9458 80.2086 152.717 -20.9946 -45.3797 -1.30585 0.342721 -61.7981 -119.078 -55.3259 40.2961 -13.6004 -22.409 19.6527 39.9447 21.383 -55.7784 27.2863 -4.99404 -22.8211 -73.8957 19.2145 23.8913 122.037 42.5183 5.41327 
-326.797 51.6246 359.727 -111.36 -53.7067 -130.592 155.562 33.3934 92.0403 -0.309077 37.436 -0.0316122 13.2696 -18.3704 -22.1906 93.8106 48.7921 76.0142 177.135 19.8829 50.3999 -120.528 -38.5417 1.1637 104.079 -32.3528 -18.8927 66.3309 -18.2365 -14.9943 -3.08787 8.04337 -88.4607 10.8719 -5.43718 3.57124 -0.793258 -5.27486 3.80728 -23.4072 -6.25824 1.76779 -3.39456 -6.25825 1.76778 62.9666 -34.9397 -150.725 13.114 36.0659 78.6414 151.238 -22.6612 -46.2185 -1.80241 0.602437 -61.162 -116.917 -56.6296 43.7196 -18.9803 -21.6508 16.9433 29.241 19.8293 -44.5379 25.9768 -1.1938 -8.73621 -70.4918 15.5625 30.8111 122.389 37.0652 4.45106 
-323.837 55.6974 355.939 -111.551 -53.0895 -132.18 157.486 32.5663 88.8954 0.149247 37.5001 0.0498979 11.899 -19.8041 -22.219 74.3532 40.5697 85.7458 -179.651 27.2278 48.0283 -119.079 -28.5456 -0.194244 102.504 -21.1688 -11.3045 68.1363 -13.3648 -5.2395 -3.69261 8.38927 -88.5044 10.2016 -6.67539 3.53617 -1.45783 -6.51338 3.82721 -24.1226 -7.42807 1.35753 -4.10997 -7.42807 1.35752 67.4692 -27.037 -150.368 20.4421 38.4859 73.1733 149.367 -23.7739 -48.1473 -2.11393 0.769346 -61.2062 -111.932 -57.3815 50.475 -30.4973 -19.3998 19.329 14.6382 11.136 -23.9636 8.13134 0.326962 -1.51418 -63.7392 13.9615 40.4141 122.575 29.6547 1.93548 
-317.88 62.4508 348.549 -111.42 -52.4783 -133.238 162.28 36.7513 84.4291 -12.7139 36.4413 -1.74088 18.1898 -20.7351 -15.4043 54.3511 22.6183 78.2415 -174.41 37.7484 45.8846 -112.651 -15.6666 -1.68295 92.6105 -6.69817 -2.48034 65.5775 -5.14322 8.11836 -4.45646 8.84758 -88.4491 9.31444 -8.19155 3.6721 -2.33681 -8.02209 4.03064 -25.0748 -8.91378 1.02313 -5.06217 -8.91378 1.02312 73.9256 -15.9954 -149.733 34.3036 41.5945 61.726 147.324 -23.5316 -51.3218 -2.16275 0.818563 -62.3588 -102.645 -53.8341 61.3959 -49.1223 -20.9302 24.4779 10.4733 0.973068 -10.6099 -0.441262 -0.220222 -6.86802 -53.3797 16.0621 51.0553 121.182 20.3452 -1.79626 
